<?xml version="1.0" encoding="UTF-8"?> <svg xmlns="http://www.w3.org/2000/svg" xmlns:xlink="http://www.w3.org/1999/xlink" width="156px" height="56px" viewBox="0 0 156 56" version="1.1"><!-- Generator: Sketch 64 (93537) - https://sketch.com --><title>logo / cm2-logo--light</title><desc>Created with Sketch.</desc><g id="Symbols" stroke="none" stroke-width="1" fill="none" fill-rule="evenodd"><g id="header-/-web-/-transparent-/-v1" transform="translate(-32.000000, -16.000000)"><g id="logo-/-cm2-logo--light" transform="translate(32.000000, 16.000000)"><g id="cm2-logo--white" transform="translate(0.000000, 0.363636)"><path d="M69.3454545,48.9963636 C69.6231669,48.4801864 69.9747536,48.0073206 70.3890909,47.5927273 C70.9292387,47.0461982 71.510321,46.5417021 72.1272727,46.0836364 C72.8036364,45.5636364 73.64,44.9563636 74.6036364,44.2654545 C75.5672727,43.5745455 76.6509091,42.8109091 77.8763636,41.9490909 C78.7890909,41.3236364 79.72,40.6363636 80.6472727,39.9090909 C81.5654269,39.1848082 82.3888564,38.3479399 83.0981818,37.4181818 C83.8413334,36.4436502 84.4402121,35.3671383 84.8763636,34.2218182 C85.3593547,32.8979541 85.5935892,31.4962454 85.5672727,30.0872727 C85.5989786,28.4104607 85.2664815,26.7467343 84.5927273,25.2109091 C83.9729319,23.846997 83.0648006,22.6336739 81.9309091,21.6545455 C80.7549395,20.660588 79.3961753,19.9058562 77.9309091,19.4327273 C76.3348555,18.9104455 74.6647485,18.6501053 72.9854545,18.6618182 C72.3073652,18.6696704 71.6301194,18.7121499 70.9563636,18.7890909 C70.0983635,18.8898469 69.2528135,19.0774761 68.4327273,19.3490909 C67.5115027,19.667251 66.6332866,20.0984196 65.8181818,20.6327273 C64.9096242,21.2317064 64.1173796,21.9906841 63.48,22.8727273 C62.7175533,23.9424997 62.1364478,25.1305104 61.76,26.3890909 C61.3095951,27.9242131 61.0842189,29.5165449 61.0909091,31.1163636 L67.5636364,31.1163636 C67.5636364,30.5309091 67.6181818,29.8909091 67.6945455,29.2036364 C67.7800375,28.3726794 68.0062968,27.5623269 68.3636364,26.8072727 C68.7475976,26.0220982 69.3417212,25.3587441 70.08,24.8909091 C70.8618182,24.3818182 71.9527273,24.12 73.3272727,24.12 C74.1762194,24.1011774 75.0182466,24.2765479 75.7890909,24.6327273 C76.45789,24.9471132 77.050825,25.4023583 77.5272727,25.9672727 C77.9763755,26.5050214 78.3216312,27.1215494 78.5454545,27.7854545 C78.7676913,28.4339319 78.8819384,29.1145008 78.8836364,29.8 C78.8991252,30.8155684 78.7086239,31.8237408 78.3236364,32.7636364 C77.8977782,33.7073643 77.3094428,34.5689433 76.5854545,35.3090909 C75.6660367,36.2604434 74.6659346,37.1303619 73.5963636,37.9090909 C72.3418182,38.8436364 70.88,39.92 69.2327273,41.1018182 C68.4254545,41.6981818 67.5769697,42.329697 66.6872727,42.9963636 C65.8036364,43.6654545 64.9636364,44.3418182 64.1927273,45.0109091 C63.4218182,45.68 62.6909091,46.3454545 62.0618182,46.9709091 C61.5751887,47.4417046 61.1332945,47.9566392 60.7418182,48.5090909 L60.7418182,55.3127273 L85.6072727,55.3127273 L85.6072727,49.4945455 L69.0909091,49.4945455 L69.3454545,48.9963636 Z" id="Path" fill="#ED1C24" fill-rule="nonzero"></path><path d="M63.7381818,44.4836364 C64.5236364,43.8036364 65.3745455,43.1163636 66.2836364,42.4363636 L67.6727273,41.3927273 L67.6727273,31.8581818 L60.6509091,31.8581818 L60.6509091,47.4945455 C60.9127273,47.1781818 61.2181818,46.8472727 61.5709091,46.4909091 C62.2109091,45.84 62.9381818,45.1709091 63.7381818,44.4836364 Z" id="Path" fill="#FFFFFF" fill-rule="nonzero"></path><path d="M60.56,28.4109091 C60.6641296,27.6553802 60.8307618,26.9097927 61.0581818,26.1818182 C61.457181,24.8475284 62.0713175,23.5873202 62.8763636,22.4509091 C63.5706292,21.4976771 64.4332913,20.6793805 65.4218182,20.0363636 C66.1283688,19.5827105 66.8788246,19.2013913 67.6618182,18.8981818 L67.6618182,17.4545455 L56.7527273,17.4545455 L48.1054545,43.5563636 L39.5090909,17.4545455 L28.7527273,17.4545455 L28.7527273,24.6581818 C27.8151545,26.2992982 26.4763886,27.6755996 24.8618182,28.6581818 C23.1273388,29.7284247 21.1252692,30.2856758 19.0872727,30.2654545 C17.5885854,30.2773615 16.1034002,29.9815621 14.7236364,29.3963636 C12.0443607,28.2552137 9.91278156,26.1184197 8.77818182,23.4363636 C7.61918569,20.661618 7.61918569,17.538382 8.77818182,14.7636364 C9.33386242,13.429382 10.1497346,12.2191716 11.1781818,11.2036364 C12.2086619,10.1942861 13.4152162,9.38211109 14.7381818,8.80727273 C16.1127443,8.20235169 17.6000907,7.89620622 19.1018182,7.90909091 C21.0670649,7.88969251 23.0000662,8.40910014 24.6909091,9.41090909 C26.3163287,10.3513991 27.6628264,11.7066811 28.5927273,13.3381818 C29.4690909,12.92 30.1927273,12.5672727 30.7745455,12.2872727 L32.3018182,11.52 C32.7563636,11.2945455 33.2327273,11.0472727 33.7272727,10.7927273 L35.6363636,9.75272727 C34.833933,8.32542138 33.8567009,7.00371502 32.7272727,5.81818182 C31.5846641,4.61749603 30.2871906,3.57438112 28.8690909,2.71636364 C27.4259333,1.8516111 25.8741367,1.18271213 24.2545455,0.727272727 C20.0822362,-0.451863352 15.633134,-0.178762842 11.6363636,1.50181818 C9.37511007,2.47150079 7.32191517,3.86787087 5.58909091,5.61454545 C3.85672305,7.37054021 2.47018365,9.43677998 1.50181818,11.7054545 C0.498992446,14.036629 -0.0122631358,16.5495802 -0.000356560743,19.0872727 C-0.0158274445,21.6417607 0.49543075,24.1720555 1.50181818,26.52 C3.43526375,31.0906437 7.06919285,34.7310922 11.6363636,36.6727273 C13.9895232,37.6836632 16.5261973,38.1974357 19.0872727,38.1818182 C22.485834,38.1935482 25.8247389,37.2891044 28.7527273,35.5636364 L28.7527273,55.0909091 L35.6036364,55.0909091 L35.6036364,28.6763636 L35.7090909,28.6763636 L44.9381818,55.0909091 L51.3163636,55.0909091 L60.5454545,28.4109091 L60.56,28.4109091 Z" id="Path" fill="#FFFFFF" fill-rule="nonzero"></path><polygon id="Path" fill="#FFFFFF" fill-rule="nonzero" points="96.5672727 33.6654545 98.2181818 39.9563636 97.4072727 39.9563636 96.4109091 36.1127273 94.6872727 40.1890909 92.9636364 36.08 91.9490909 39.9563636 91.1454545 39.9563636 92.7963636 33.6654545 94.6872727 38.1672727"></polygon><polygon id="Path" fill="#FFFFFF" fill-rule="nonzero" points="108.727273 33.9163636 112.072727 33.9163636 112.072727 34.7418182 109.527273 34.7418182 109.527273 36.2472727 112.072727 36.2472727 112.072727 37.0618182 109.527273 37.0618182 109.527273 39.1418182 112.072727 39.1418182 112.072727 39.9563636 108.727273 39.9563636"></polygon><path d="M122.745455,33.9163636 L124.2,33.9163636 C125.361212,33.9163636 126.224242,34.2230303 126.789091,34.8363636 C127.333577,35.3989931 127.637487,36.1515919 127.63637,36.9345455 C127.637994,37.7254063 127.322297,38.4838656 126.76,39.04 C126.173333,39.6509091 125.324848,39.9563636 124.214545,39.9563636 L122.741818,39.9563636 L122.745455,33.9163636 Z M123.570909,34.7236364 L123.570909,39.1418182 L123.636364,39.1418182 C124.099679,39.151202 124.562997,39.1232327 125.021818,39.0581818 C125.337413,39.0000439 125.637242,38.8761476 125.901818,38.6945455 C126.179561,38.5099404 126.408001,38.2602791 126.567273,37.9672727 C126.939022,37.2386079 126.881796,36.3648616 126.418182,35.6909091 C126.191739,35.3313764 125.853029,35.0565737 125.454545,34.9090909 C124.983612,34.7652181 124.492152,34.7000997 124,34.7163636 L123.570909,34.7236364 Z" id="Shape" fill="#FFFFFF" fill-rule="nonzero"></path><polygon id="Path" fill="#FFFFFF" fill-rule="nonzero" points="138.294545 33.9163636 139.109091 33.9163636 139.109091 39.9563636 138.294545 39.9563636"></polygon><path d="M152.4,33.6836364 L155.250909,39.9563636 L154.389091,39.9563636 L153.687273,38.4109091 L151.123636,38.4109091 L150.429091,39.9563636 L149.570909,39.9563636 L152.4,33.6836364 Z M152.4,35.5672727 L151.432727,37.7236364 L153.374545,37.7236364 L152.4,35.5672727 Z" id="Shape" fill="#FFFFFF" fill-rule="nonzero"></path></g></g></g></g></svg> 